<mxfile host="app.diagrams.net" agent="Mozilla/5.0 (Windows NT 10.0; Win64; x64) AppleWebKit/537.36 (KHTML, like Gecko) Chrome/132.0.0.0 Safari/537.36 OPR/117.0.0.0" version="26.2.8">
  <diagram name="Página-1" id="WZyv0JxouMX_XDlRVS8C">
    <mxGraphModel dx="1386" dy="788" grid="1" gridSize="10" guides="1" tooltips="1" connect="1" arrows="1" fold="1" page="1" pageScale="1" pageWidth="827" pageHeight="1169" math="0" shadow="0">
      <root>
        <mxCell id="0" />
        <mxCell id="1" parent="0" />
        <mxCell id="Vutzdg3vwc1pvYwfnhsm-13" value="" style="rounded=0;whiteSpace=wrap;html=1;" vertex="1" parent="1">
          <mxGeometry x="190" y="40" width="580" height="600" as="geometry" />
        </mxCell>
        <mxCell id="Vutzdg3vwc1pvYwfnhsm-44" style="edgeStyle=orthogonalEdgeStyle;rounded=0;orthogonalLoop=1;jettySize=auto;html=1;exitX=0.5;exitY=0.5;exitDx=0;exitDy=0;exitPerimeter=0;entryX=0;entryY=0.5;entryDx=0;entryDy=0;" edge="1" parent="1" source="Vutzdg3vwc1pvYwfnhsm-10" target="Vutzdg3vwc1pvYwfnhsm-27">
          <mxGeometry relative="1" as="geometry">
            <Array as="points">
              <mxPoint x="230" y="305" />
              <mxPoint x="230" y="130" />
            </Array>
          </mxGeometry>
        </mxCell>
        <mxCell id="Vutzdg3vwc1pvYwfnhsm-45" style="edgeStyle=orthogonalEdgeStyle;rounded=0;orthogonalLoop=1;jettySize=auto;html=1;exitX=0.5;exitY=0.5;exitDx=0;exitDy=0;exitPerimeter=0;entryX=0;entryY=0.5;entryDx=0;entryDy=0;" edge="1" parent="1" source="Vutzdg3vwc1pvYwfnhsm-10" target="Vutzdg3vwc1pvYwfnhsm-28">
          <mxGeometry relative="1" as="geometry">
            <Array as="points">
              <mxPoint x="250" y="305" />
              <mxPoint x="250" y="180" />
            </Array>
          </mxGeometry>
        </mxCell>
        <mxCell id="Vutzdg3vwc1pvYwfnhsm-46" style="edgeStyle=orthogonalEdgeStyle;rounded=0;orthogonalLoop=1;jettySize=auto;html=1;exitX=0.5;exitY=0.5;exitDx=0;exitDy=0;exitPerimeter=0;entryX=0;entryY=0.5;entryDx=0;entryDy=0;" edge="1" parent="1" source="Vutzdg3vwc1pvYwfnhsm-10" target="Vutzdg3vwc1pvYwfnhsm-29">
          <mxGeometry relative="1" as="geometry">
            <Array as="points">
              <mxPoint x="270" y="305" />
              <mxPoint x="270" y="230" />
            </Array>
          </mxGeometry>
        </mxCell>
        <mxCell id="Vutzdg3vwc1pvYwfnhsm-47" style="edgeStyle=orthogonalEdgeStyle;rounded=0;orthogonalLoop=1;jettySize=auto;html=1;exitX=0.5;exitY=0.5;exitDx=0;exitDy=0;exitPerimeter=0;" edge="1" parent="1" source="Vutzdg3vwc1pvYwfnhsm-10" target="Vutzdg3vwc1pvYwfnhsm-30">
          <mxGeometry relative="1" as="geometry">
            <Array as="points">
              <mxPoint x="290" y="305" />
              <mxPoint x="290" y="280" />
            </Array>
          </mxGeometry>
        </mxCell>
        <mxCell id="Vutzdg3vwc1pvYwfnhsm-48" style="edgeStyle=orthogonalEdgeStyle;rounded=0;orthogonalLoop=1;jettySize=auto;html=1;exitX=0.5;exitY=0.5;exitDx=0;exitDy=0;exitPerimeter=0;" edge="1" parent="1" source="Vutzdg3vwc1pvYwfnhsm-10" target="Vutzdg3vwc1pvYwfnhsm-31">
          <mxGeometry relative="1" as="geometry">
            <Array as="points">
              <mxPoint x="290" y="305" />
              <mxPoint x="290" y="330" />
            </Array>
          </mxGeometry>
        </mxCell>
        <mxCell id="Vutzdg3vwc1pvYwfnhsm-49" style="edgeStyle=orthogonalEdgeStyle;rounded=0;orthogonalLoop=1;jettySize=auto;html=1;exitX=0.5;exitY=0.5;exitDx=0;exitDy=0;exitPerimeter=0;entryX=0;entryY=0.5;entryDx=0;entryDy=0;" edge="1" parent="1" source="Vutzdg3vwc1pvYwfnhsm-10" target="Vutzdg3vwc1pvYwfnhsm-32">
          <mxGeometry relative="1" as="geometry">
            <Array as="points">
              <mxPoint x="270" y="305" />
              <mxPoint x="270" y="380" />
            </Array>
          </mxGeometry>
        </mxCell>
        <mxCell id="Vutzdg3vwc1pvYwfnhsm-50" style="edgeStyle=orthogonalEdgeStyle;rounded=0;orthogonalLoop=1;jettySize=auto;html=1;exitX=0.5;exitY=0.5;exitDx=0;exitDy=0;exitPerimeter=0;entryX=0;entryY=0.5;entryDx=0;entryDy=0;" edge="1" parent="1" source="Vutzdg3vwc1pvYwfnhsm-10" target="Vutzdg3vwc1pvYwfnhsm-33">
          <mxGeometry relative="1" as="geometry">
            <Array as="points">
              <mxPoint x="250" y="305" />
              <mxPoint x="250" y="430" />
            </Array>
          </mxGeometry>
        </mxCell>
        <mxCell id="Vutzdg3vwc1pvYwfnhsm-52" style="edgeStyle=orthogonalEdgeStyle;rounded=0;orthogonalLoop=1;jettySize=auto;html=1;exitX=0.5;exitY=0.5;exitDx=0;exitDy=0;exitPerimeter=0;entryX=0;entryY=0.5;entryDx=0;entryDy=0;" edge="1" parent="1" source="Vutzdg3vwc1pvYwfnhsm-10" target="Vutzdg3vwc1pvYwfnhsm-34">
          <mxGeometry relative="1" as="geometry">
            <Array as="points">
              <mxPoint x="230" y="305" />
              <mxPoint x="230" y="480" />
            </Array>
          </mxGeometry>
        </mxCell>
        <mxCell id="Vutzdg3vwc1pvYwfnhsm-53" style="edgeStyle=orthogonalEdgeStyle;rounded=0;orthogonalLoop=1;jettySize=auto;html=1;exitX=0.5;exitY=0.5;exitDx=0;exitDy=0;exitPerimeter=0;entryX=0;entryY=0.5;entryDx=0;entryDy=0;" edge="1" parent="1" source="Vutzdg3vwc1pvYwfnhsm-10" target="Vutzdg3vwc1pvYwfnhsm-35">
          <mxGeometry relative="1" as="geometry">
            <Array as="points">
              <mxPoint x="210" y="305" />
              <mxPoint x="210" y="530" />
            </Array>
          </mxGeometry>
        </mxCell>
        <mxCell id="Vutzdg3vwc1pvYwfnhsm-10" value="Usuário" style="shape=umlActor;verticalLabelPosition=bottom;verticalAlign=top;html=1;outlineConnect=0;" vertex="1" parent="1">
          <mxGeometry x="110" y="275" width="30" height="60" as="geometry" />
        </mxCell>
        <mxCell id="Vutzdg3vwc1pvYwfnhsm-55" style="edgeStyle=orthogonalEdgeStyle;rounded=0;orthogonalLoop=1;jettySize=auto;html=1;exitX=0.5;exitY=0.5;exitDx=0;exitDy=0;exitPerimeter=0;entryX=1;entryY=0.5;entryDx=0;entryDy=0;" edge="1" parent="1" source="Vutzdg3vwc1pvYwfnhsm-11" target="Vutzdg3vwc1pvYwfnhsm-54">
          <mxGeometry relative="1" as="geometry" />
        </mxCell>
        <mxCell id="Vutzdg3vwc1pvYwfnhsm-11" value="Inteligência Artificial" style="shape=umlActor;verticalLabelPosition=bottom;verticalAlign=top;html=1;outlineConnect=0;" vertex="1" parent="1">
          <mxGeometry x="827" y="275" width="30" height="60" as="geometry" />
        </mxCell>
        <mxCell id="Vutzdg3vwc1pvYwfnhsm-14" value="Sistema Kaizen" style="text;strokeColor=none;fillColor=none;html=1;fontSize=24;fontStyle=1;verticalAlign=middle;align=center;" vertex="1" parent="1">
          <mxGeometry x="430" y="60" width="100" height="40" as="geometry" />
        </mxCell>
        <UserObject label="&amp;nbsp;( ) Criar Tarefa&amp;nbsp;" placeholders="1" name="Variable" id="Vutzdg3vwc1pvYwfnhsm-27">
          <mxCell style="text;html=1;strokeColor=none;fillColor=none;align=left;verticalAlign=middle;whiteSpace=wrap;overflow=hidden;strokeWidth=1;fontSize=18;fontStyle=0" vertex="1" parent="1">
            <mxGeometry x="309" y="110" width="210" height="40" as="geometry" />
          </mxCell>
        </UserObject>
        <UserObject label="&amp;nbsp;( ) Concluir Tarefa" placeholders="1" name="Variable" id="Vutzdg3vwc1pvYwfnhsm-28">
          <mxCell style="text;html=1;strokeColor=none;fillColor=none;align=left;verticalAlign=middle;whiteSpace=wrap;overflow=hidden;strokeWidth=1;fontSize=18;fontStyle=0" vertex="1" parent="1">
            <mxGeometry x="309" y="160" width="210" height="40" as="geometry" />
          </mxCell>
        </UserObject>
        <UserObject label="&amp;nbsp;( ) Criar Hábito" placeholders="1" name="Variable" id="Vutzdg3vwc1pvYwfnhsm-29">
          <mxCell style="text;html=1;strokeColor=none;fillColor=none;align=left;verticalAlign=middle;whiteSpace=wrap;overflow=hidden;strokeWidth=1;fontSize=18;fontStyle=0" vertex="1" parent="1">
            <mxGeometry x="309" y="210" width="210" height="40" as="geometry" />
          </mxCell>
        </UserObject>
        <UserObject label="&amp;nbsp;( ) Registrar Execução de Hábito" placeholders="1" name="Variable" id="Vutzdg3vwc1pvYwfnhsm-30">
          <mxCell style="text;html=1;strokeColor=none;fillColor=none;align=left;verticalAlign=middle;whiteSpace=wrap;overflow=hidden;strokeWidth=1;fontSize=18;fontStyle=0" vertex="1" parent="1">
            <mxGeometry x="309" y="260" width="281" height="40" as="geometry" />
          </mxCell>
        </UserObject>
        <UserObject label="&amp;nbsp;( ) Consultar Recompensas" placeholders="1" name="Variable" id="Vutzdg3vwc1pvYwfnhsm-31">
          <mxCell style="text;html=1;strokeColor=none;fillColor=none;align=left;verticalAlign=middle;whiteSpace=wrap;overflow=hidden;strokeWidth=1;fontSize=18;fontStyle=0" vertex="1" parent="1">
            <mxGeometry x="309" y="310" width="271" height="40" as="geometry" />
          </mxCell>
        </UserObject>
        <UserObject label="&amp;nbsp;( ) Resgatar Recompensa" placeholders="1" name="Variable" id="Vutzdg3vwc1pvYwfnhsm-32">
          <mxCell style="text;html=1;strokeColor=none;fillColor=none;align=left;verticalAlign=middle;whiteSpace=wrap;overflow=hidden;strokeWidth=1;fontSize=18;fontStyle=0" vertex="1" parent="1">
            <mxGeometry x="309" y="360" width="221" height="40" as="geometry" />
          </mxCell>
        </UserObject>
        <UserObject label="&amp;nbsp;( ) Visualizar Estatísticas" placeholders="1" name="Variable" id="Vutzdg3vwc1pvYwfnhsm-33">
          <mxCell style="text;html=1;strokeColor=none;fillColor=none;align=left;verticalAlign=middle;whiteSpace=wrap;overflow=hidden;strokeWidth=1;fontSize=18;fontStyle=0" vertex="1" parent="1">
            <mxGeometry x="309" y="410" width="210" height="40" as="geometry" />
          </mxCell>
        </UserObject>
        <UserObject label="&amp;nbsp;( ) Receber Sugestões da IA" placeholders="1" name="Variable" id="Vutzdg3vwc1pvYwfnhsm-34">
          <mxCell style="text;html=1;strokeColor=none;fillColor=none;align=left;verticalAlign=middle;whiteSpace=wrap;overflow=hidden;strokeWidth=1;fontSize=18;fontStyle=0" vertex="1" parent="1">
            <mxGeometry x="309" y="460" width="241" height="40" as="geometry" />
          </mxCell>
        </UserObject>
        <UserObject label="&amp;nbsp;( ) Receber Notificações" placeholders="1" name="Variable" id="Vutzdg3vwc1pvYwfnhsm-35">
          <mxCell style="text;html=1;strokeColor=none;fillColor=none;align=left;verticalAlign=middle;whiteSpace=wrap;overflow=hidden;strokeWidth=1;fontSize=18;fontStyle=0" vertex="1" parent="1">
            <mxGeometry x="309" y="510" width="210" height="40" as="geometry" />
          </mxCell>
        </UserObject>
        <UserObject label="&amp;nbsp;( ) Gerar Sugestões de Tarefa ou Hábito" placeholders="1" name="Variable" id="Vutzdg3vwc1pvYwfnhsm-54">
          <mxCell style="text;html=1;strokeColor=none;fillColor=none;align=left;verticalAlign=middle;whiteSpace=wrap;overflow=hidden;strokeWidth=1;fontSize=18;fontStyle=0" vertex="1" parent="1">
            <mxGeometry x="309" y="564.5" width="341" height="40" as="geometry" />
          </mxCell>
        </UserObject>
      </root>
    </mxGraphModel>
  </diagram>
</mxfile>
